<?xml version="1.0" encoding="UTF-8" standalone="no"?>
<!-- Created with Inkscape (http://www.inkscape.org/) -->
<svg
   xmlns:dc="http://purl.org/dc/elements/1.1/"
   xmlns:cc="http://creativecommons.org/ns#"
   xmlns:rdf="http://www.w3.org/1999/02/22-rdf-syntax-ns#"
   xmlns:svg="http://www.w3.org/2000/svg"
   xmlns="http://www.w3.org/2000/svg"
   xmlns:xlink="http://www.w3.org/1999/xlink"
   xmlns:sodipodi="http://sodipodi.sourceforge.net/DTD/sodipodi-0.dtd"
   xmlns:inkscape="http://www.inkscape.org/namespaces/inkscape"
   width="290.60031"
   height="182.28639"
   id="svg2"
   sodipodi:version="0.32"
   inkscape:version="0.46"
   sodipodi:docname="splash.svg"
   sodipodi:docbase="/home/Esteban/Programas/gestotux/templates"
   inkscape:output_extension="org.inkscape.output.svg.inkscape"
   sodipodi:modified="TRUE"
   version="1.0"
   inkscape:export-filename="/home/Esteban/Programas/gestotux/bin/splash.png"
   inkscape:export-xdpi="84"
   inkscape:export-ydpi="84">
  <defs
     id="defs4">
    <inkscape:perspective
       sodipodi:type="inkscape:persp3d"
       inkscape:vp_x="0 : 91.143196 : 1"
       inkscape:vp_y="0 : 1000 : 0"
       inkscape:vp_z="290.60031 : 91.143196 : 1"
       inkscape:persp3d-origin="145.30016 : 60.762131 : 1"
       id="perspective2400" />
    <linearGradient
       id="linearGradient3165">
      <stop
         style="stop-color:#000000;stop-opacity:0.28125;"
         offset="0"
         id="stop3167" />
      <stop
         style="stop-color:#000000;stop-opacity:0;"
         offset="1"
         id="stop3169" />
    </linearGradient>
    <linearGradient
       id="linearGradient3157">
      <stop
         style="stop-color:#1500ea;stop-opacity:0.07482993;"
         offset="0"
         id="stop3159" />
      <stop
         style="stop-color:#4f18a4;stop-opacity:1;"
         offset="1"
         id="stop3161" />
    </linearGradient>
    <linearGradient
       inkscape:collect="always"
       xlink:href="#linearGradient3157"
       id="linearGradient2436"
       gradientUnits="userSpaceOnUse"
       gradientTransform="matrix(-0.4943481,3.9826662e-3,1.9699944e-3,-0.5736763,-18.841483,875.92563)"
       x1="-318.8071"
       y1="674.95935"
       x2="-297.89072"
       y2="455.31052"
       spreadMethod="reflect" />
    <linearGradient
       inkscape:collect="always"
       xlink:href="#linearGradient3165"
       id="linearGradient2438"
       gradientUnits="userSpaceOnUse"
       gradientTransform="matrix(-0.4943481,3.9826662e-3,1.9699944e-3,-0.5736763,478.01865,109.87947)"
       spreadMethod="reflect"
       x1="106.98804"
       y1="-654.5968"
       x2="918.30243"
       y2="-654.5968" />
  </defs>
  <sodipodi:namedview
     id="base"
     pagecolor="#b8b8b8"
     bordercolor="#666666"
     borderopacity="1.0"
     gridtolerance="10000"
     guidetolerance="10"
     objecttolerance="10"
     inkscape:pageopacity="0"
     inkscape:pageshadow="2"
     inkscape:zoom="1.4"
     inkscape:cx="166.86056"
     inkscape:cy="30.99731"
     inkscape:document-units="px"
     inkscape:current-layer="g2429"
     inkscape:window-width="1280"
     inkscape:window-height="949"
     inkscape:window-x="-2"
     inkscape:window-y="-7"
     showgrid="false"
     inkscape:showpageshadow="true"
     showborder="false" />
  <metadata
     id="metadata7">
    <rdf:RDF>
      <cc:Work
         rdf:about="">
        <dc:format>image/svg+xml</dc:format>
        <dc:type
           rdf:resource="http://purl.org/dc/dcmitype/StillImage" />
      </cc:Work>
    </rdf:RDF>
  </metadata>
  <g
     inkscape:label="Layer 1"
     inkscape:groupmode="layer"
     id="layer1"
     transform="translate(-22.287369,-361.36332)">
    <g
       id="g2429"
       transform="matrix(0.7228344,0,0,0.7228344,6.177292,100.15748)">
      <path
         transform="scale(0.6769136,1.4772935)"
         style="font-size:70.04386139px;font-style:normal;font-variant:normal;font-weight:normal;font-stretch:normal;text-align:start;line-height:125%;writing-mode:lr-tb;text-anchor:start;fill:#5555ff;fill-opacity:1;stroke:none;stroke-width:1px;stroke-linecap:butt;stroke-linejoin:miter;stroke-opacity:1;font-family:New Day MF;-inkscape-font-specification:New Day MF"
         d="M 796.23701,367.92015 C 796.23696,369.83471 795.65327,371.81928 794.48592,373.87388 C 793.36517,375.88182 792.01099,377.56287 790.42337,378.91704 C 786.03392,382.60602 780.19694,384.45051 772.91241,384.4505 C 767.40227,384.45051 762.35912,383.25977 757.78293,380.87827 C 752.22612,377.98313 749.44771,374.03733 749.44771,369.04085 C 749.44771,362.69024 754.16399,358.13739 763.59657,355.3823 C 764.57717,355.10216 766.04809,354.93873 768.00934,354.89199 C 770.01724,354.79864 771.48816,354.61186 772.4221,354.33164 C 772.70225,354.23829 773.07582,354.05151 773.5428,353.77129 C 774.00973,353.49115 774.50004,353.35107 775.01372,353.35103 C 775.34057,353.35107 776.95157,353.67794 779.84675,354.33164 C 789.0925,356.43299 794.43917,360.09862 795.88679,365.32853 C 796.12023,366.21578 796.23696,367.07965 796.23701,367.92015 M 790.42337,369.25099 C 788.88237,365.56203 785.82379,362.64354 781.24763,360.4955 C 777.27845,358.6277 773.05247,357.69378 768.56969,357.69375 C 765.76792,357.69378 763.1296,358.30083 760.65473,359.51489 C 757.57279,361.00919 756.03183,362.99376 756.03184,365.46862 C 756.03183,370.09153 758.36662,373.89725 763.03622,376.88577 C 767.14544,379.50075 771.62825,380.80823 776.48464,380.80822 C 780.59385,380.80823 783.88591,379.87432 786.36083,378.00647 C 789.06915,375.90517 790.42333,372.98668 790.42337,369.25099 M 811.2461,388.443 C 811.24609,390.7778 809.70513,391.9452 806.62321,391.9452 C 803.35449,391.9452 801.72013,390.80115 801.72014,388.51305 C 801.72013,387.34565 802.28048,386.41174 803.40119,385.71129 C 804.3351,385.10425 805.40911,384.80073 806.62321,384.80072 C 807.83729,384.80073 808.9113,385.10425 809.84522,385.71129 C 810.77913,386.31835 811.24609,387.22891 811.2461,388.443 M 856.96395,379.75756 L 856.96395,380.17783 C 856.9639,380.92497 855.39959,381.36858 852.27101,381.50866 C 852.50445,381.50867 850.49653,381.50867 846.24723,381.50866 C 845.21989,381.50867 844.35602,381.53202 843.65561,381.5787 C 843.18862,382.55933 842.95514,384.49721 842.95517,387.39235 C 842.95514,388.18618 843.04854,389.33023 843.23535,390.82449 C 843.4221,392.31876 843.5155,393.43946 843.51552,394.1866 C 843.5155,394.60686 843.28202,394.81699 842.81509,394.81699 C 841.41418,394.81699 840.17674,392.94916 839.10276,389.21349 C 838.30891,386.27165 837.8653,383.72672 837.77193,381.5787 C 835.01685,381.7188 832.14505,381.78885 829.15653,381.78884 C 827.75564,381.78885 825.65433,381.7655 822.85259,381.71879 C 820.05082,381.62541 817.94951,381.57872 816.54864,381.5787 C 816.36185,381.57872 816.26846,381.15845 816.26846,380.31792 C 816.26846,379.01044 820.51778,369.8814 829.01644,352.93077 C 829.20321,352.46385 830.76753,352.23037 833.70938,352.23033 C 834.78337,352.23037 835.48381,352.30041 835.8107,352.44046 C 836.37103,352.67398 836.6512,353.21098 836.65123,354.05147 C 826.37811,368.90079 821.24157,376.51221 821.24158,376.88577 C 821.24157,377.11926 821.61514,377.25935 822.36228,377.30603 C 822.87592,377.30604 823.57636,377.2827 824.46359,377.23599 C 825.53759,377.1893 826.0279,377.16596 825.93452,377.16594 L 838.0521,377.16594 L 838.0521,362.10651 C 838.05208,361.07923 839.12608,360.56558 841.27412,360.56555 C 844.16924,360.56558 845.54676,361.12593 845.40671,362.2466 C 845.03311,365.84221 844.44941,370.81532 843.65561,377.16594 C 846.13046,377.44613 848.60534,377.70296 851.08026,377.93642 C 855.00268,378.4034 856.9639,379.01044 856.96395,379.75756 M 923.27797,375.69502 C 923.41802,375.97521 923.11449,376.48887 922.3674,377.23599 C 919.19204,377.74965 916.97399,378.00648 915.71323,378.00647 C 914.45241,378.00648 913.33171,377.86639 912.35113,377.5862 C 912.3511,378.19327 912.56123,379.19723 912.98152,380.59809 C 913.40175,381.95228 913.61188,383.04963 913.61192,383.89015 C 913.61188,384.35712 913.56519,384.80073 913.47183,385.22099 C 912.16431,388.58309 908.61543,390.7778 902.82516,391.80511 C 895.82076,391.9452 890.42739,389.79719 886.64503,385.36107 C 886.22476,384.56725 885.71111,383.23642 885.10406,381.36857 C 884.6371,373.52368 884.73049,362.90037 885.38424,349.49862 C 886.41155,348.985 887.55559,348.72818 888.81639,348.72813 C 889.84369,348.72818 891.08113,348.91496 892.52871,349.28848 C 892.80888,349.28853 892.94897,349.45196 892.94898,349.77879 C 892.94897,350.10571 893.04236,350.29249 893.22915,350.33914 C 892.94897,351.59997 892.36527,355.82595 891.47806,363.01708 C 890.871,368.10696 889.89039,372.1695 888.53621,375.20471 C 888.25603,375.81178 888.11594,376.41882 888.11595,377.02585 C 888.11594,377.58622 888.23268,378.26331 888.46617,379.05713 C 888.79303,380.17784 888.97982,380.87828 889.02652,381.15844 C 895.42385,385.96813 901.56435,388.16283 907.44806,387.74256 C 908.38195,387.22891 909.19913,386.52848 909.89959,385.64125 C 910.6,384.70734 910.95022,383.89016 910.95025,383.18971 C 910.85683,380.57475 910.15639,378.54348 908.84893,377.0959 C 906.6542,376.58226 904.4595,376.0686 902.26481,375.55493 C 899.64982,374.80782 897.75864,373.89725 896.59126,372.82322 C 896.26437,372.49637 896.10094,372.05276 896.10095,371.49239 C 896.14763,370.93206 896.31107,370.48845 896.59126,370.16156 C 897.71194,368.8074 898.8093,368.13031 899.88332,368.13028 C 900.72383,368.13031 902.10135,368.71401 904.01591,369.88138 C 907.05112,371.79593 909.01234,372.96333 909.89959,373.38357 C 913.30836,375.11134 916.71716,375.97521 920.126,375.9752 C 920.87309,375.97521 921.59688,375.92852 922.29735,375.83511 C 922.99775,375.74173 923.32462,375.69504 923.27797,375.69502"
         id="text2463" />
      <text
         xml:space="preserve"
         style="font-size:130.26539612px;font-style:normal;font-variant:normal;font-weight:normal;font-stretch:normal;text-align:start;line-height:125%;writing-mode:lr-tb;text-anchor:start;fill:#0000ff;fill-opacity:1;stroke:none;stroke-width:1px;stroke-linecap:butt;stroke-linejoin:miter;stroke-opacity:1;font-family:New Day MF;-inkscape-font-specification:New Day MF"
         x="-24.758867"
         y="445.55505"
         id="text2400"
         sodipodi:linespacing="125%"
         transform="scale(0.8697658,1.1497348)"><tspan
           sodipodi:role="line"
           id="tspan2402"
           x="-24.758867"
           y="445.55505">Gestotux</tspan></text>
    </g>
  </g>
</svg>
