<?xml version="1.0" encoding="UTF-8" standalone="no"?>
<!-- Created with Inkscape (http://www.inkscape.org/) -->
<svg
   xmlns:svg="http://www.w3.org/2000/svg"
   xmlns="http://www.w3.org/2000/svg"
   xmlns:xlink="http://www.w3.org/1999/xlink"
   version="1.0"
   width="290.60031"
   height="182.28639"
   id="svg2">
  <defs
     id="defs4">
    <linearGradient
       id="linearGradient3165">
      <stop
         id="stop3167"
         style="stop-color:#000000;stop-opacity:0.28125"
         offset="0" />
      <stop
         id="stop3169"
         style="stop-color:#000000;stop-opacity:0"
         offset="1" />
    </linearGradient>
    <linearGradient
       id="linearGradient3157">
      <stop
         id="stop3159"
         style="stop-color:#ffffff;stop-opacity:1"
         offset="0" />
      <stop
         id="stop3161"
         style="stop-color:#d8d8d8;stop-opacity:1"
         offset="1" />
    </linearGradient>
    <linearGradient
       x1="-318.8071"
       y1="674.95935"
       x2="-297.89072"
       y2="455.31052"
       id="linearGradient2436"
       xlink:href="#linearGradient3157"
       gradientUnits="userSpaceOnUse"
       gradientTransform="matrix(-0.4943481,3.9826662e-3,1.9699944e-3,-0.5736763,-18.841483,875.92563)" />
    <linearGradient
       x1="106.98804"
       y1="-654.5968"
       x2="918.30243"
       y2="-654.5968"
       id="linearGradient2438"
       xlink:href="#linearGradient3165"
       gradientUnits="userSpaceOnUse"
       gradientTransform="matrix(-0.4943481,3.9826662e-3,1.9699944e-3,-0.5736763,478.01865,109.87947)"
       spreadMethod="reflect" />
  </defs>
  <g
     transform="translate(-22.287369,-361.36332)"
     id="layer1">
    <g
       transform="matrix(0.7228344,0,0,0.7228344,6.177292,100.15748)"
       id="g2429">
      <path
         d="M 423.58588,362.09368 C 290.34647,363.16711 157.10706,364.24054 23.867651,365.31397 C 23.584345,447.81456 23.301039,530.31515 23.017734,612.81574 C 156.25715,611.74231 289.49655,610.66888 422.73597,609.59545 C 423.01927,527.09486 423.30258,444.59427 423.58588,362.09368 z"
         id="rect4140"
         style="fill:url(#linearGradient2436);fill-opacity:1;fill-rule:evenodd;stroke:url(#linearGradient2438);stroke-width:1.46072876;stroke-miterlimit:4;stroke-opacity:1" />
      <path
         d="M 117.32082,599.95503 L 129.07303,599.95503 C 127.71232,602.74221 126.02246,605.09046 124.00345,606.99977 C 122.0063,608.8652 119.73487,610.35755 117.18915,611.4768 C 114.11664,612.81552 110.97833,613.48488 107.77421,613.48488 C 103.3191,613.48488 99.105431,612.25589 95.13318,609.79792 C 91.424257,607.51551 88.593195,604.46499 86.639988,600.64634 C 84.906232,597.28858 84.039356,593.65648 84.039359,589.75003 C 84.039356,583.29787 86.255924,577.78937 90.689068,573.22452 C 92.927572,570.94215 95.528198,569.17548 98.490954,567.9245 C 101.47562,566.67361 104.57004,566.04814 107.77421,566.0481 C 114.37999,566.04814 120.05309,568.49515 124.79352,573.38911 L 117.74877,580.07174 C 114.72016,577.21877 111.38434,575.79226 107.74129,575.79223 C 103.57149,575.79226 100.11496,577.29558 97.371696,580.30218 C 94.913704,582.9577 93.684717,586.10698 93.684729,589.75003 C 93.684717,593.65648 95.056355,596.97036 97.799648,599.69168 C 100.56485,602.43496 103.86776,603.8066 107.70837,603.80659 C 111.48309,603.8066 114.68724,602.52275 117.32082,599.95503 M 107.77421,594.58918 L 107.77421,585.14132 L 130.85068,585.14132 C 131.17982,586.80926 131.34442,588.37842 131.34447,589.84879 C 131.34442,591.31921 131.17982,592.89933 130.85068,594.58918 L 107.77421,594.58918 M 138.09293,612.23395 L 138.09293,567.16736 L 147.80414,567.16736 L 147.80414,612.23395 L 138.09293,612.23395 M 153.30167,612.23395 L 153.30167,602.78609 L 171.0452,602.78609 L 171.0452,612.23395 L 153.30167,612.23395 M 153.30167,594.4575 L 153.30167,585.00964 L 171.0452,585.00964 L 171.0452,594.4575 L 153.30167,594.4575 M 153.30167,576.61521 L 153.30167,567.16736 L 171.0452,567.16736 L 171.0452,576.61521 L 153.30167,576.61521 M 177.13529,598.70409 L 186.71482,598.70409 C 186.93427,600.26229 187.40611,601.44738 188.13035,602.25938 C 189.13986,603.42254 190.45664,604.00412 192.08067,604.00411 C 193.55105,604.00412 194.78004,603.49936 195.76764,602.48982 C 196.77715,601.45836 197.28191,600.18548 197.28193,598.67118 C 197.28191,597.48609 196.98563,596.50949 196.39311,595.74135 C 195.82248,594.97325 194.8788,594.29292 193.56204,593.70035 L 197.97324,585.07548 C 203.98648,587.79684 206.99311,592.26289 206.99314,598.47366 C 206.99311,602.44594 205.67633,605.86955 203.04282,608.7445 C 200.12394,611.90475 196.45893,613.48488 192.04775,613.48488 C 188.68997,613.48488 185.70528,612.4973 183.09369,610.52214 C 179.40672,607.71303 177.42059,603.77368 177.13529,598.70409 M 204.91922,579.41335 L 194.87882,579.41335 C 194.5496,576.84568 193.37548,575.56183 191.35645,575.56179 C 190.3469,575.56183 189.491,575.91297 188.78874,576.61521 C 188.10839,577.31752 187.76823,578.20635 187.76824,579.28168 C 187.76823,580.70821 188.43758,581.73969 189.77632,582.3761 C 190.17134,582.57364 191.13697,582.84797 192.67322,583.19908 L 188.26203,591.92271 C 185.56263,591.17656 183.47774,590.12314 182.00735,588.76245 C 179.3738,586.3045 178.05703,583.14424 178.05703,579.28168 C 178.05703,575.72642 179.23115,572.69785 181.5794,570.19594 C 184.16905,567.43076 187.45,566.04814 191.42229,566.0481 C 194.47279,566.04814 197.15023,566.8821 199.45461,568.54997 C 202.8343,571.00799 204.65584,574.62911 204.91922,579.41335 M 219.23913,612.23395 L 219.23913,582.11274 L 228.95034,582.11274 L 228.95034,612.23395 L 219.23913,612.23395 M 208.86953,576.61521 L 208.86953,567.16736 L 239.25409,567.16736 L 239.25409,576.61521 L 208.86953,576.61521 M 240.47211,592.48234 L 250.28208,592.48234 C 250.76488,594.69892 251.62079,596.60824 252.84979,598.2103 C 254.18849,599.98796 255.82349,601.3596 257.75477,602.32522 C 259.72991,603.31281 261.8148,603.8066 264.00945,603.80659 C 267.36719,603.8066 270.27507,602.79708 272.73308,600.77801 C 275.21296,598.73703 276.90282,595.9718 277.80266,592.48234 L 287.61262,592.48234 C 286.95419,597.37636 285.06681,601.6449 281.9505,605.28796 C 279.73388,607.87762 277.06742,609.8857 273.95109,611.31221 C 270.7908,612.76066 267.4879,613.48488 264.04237,613.48488 C 259.21418,613.48488 254.79201,612.12422 250.77587,609.40288 C 247.87896,607.42773 245.54169,604.98072 243.76405,602.06187 C 241.9864,599.14303 240.88909,595.94986 240.47211,592.48234 M 250.28208,587.05064 L 240.47211,587.05064 C 241.04271,582.37613 242.82036,578.23927 245.80505,574.64005 C 248.0655,571.9407 250.75391,569.84484 253.87029,568.35245 C 257.09637,566.81626 260.48706,566.04814 264.04237,566.0481 C 268.67299,566.04814 272.9525,567.29908 276.88092,569.8009 C 279.84362,571.71027 282.24673,574.1463 284.09025,577.109 C 285.93369,580.07177 287.10781,583.38565 287.61262,587.05064 L 277.80266,587.05064 C 277.21007,584.74632 276.33222,582.82602 275.16911,581.28976 C 273.91814,579.62188 272.37093,578.3051 270.52748,577.33944 C 268.4645,576.26411 266.29183,575.72642 264.00945,575.72639 C 260.62971,575.72642 257.67794,576.76887 255.15414,578.85373 C 252.65226,580.9167 251.02824,583.64901 250.28208,587.05064 M 299.16732,612.23395 L 299.16732,582.11274 L 308.87853,582.11274 L 308.87853,612.23395 L 299.16732,612.23395 M 288.79773,576.61521 L 288.79773,567.16736 L 319.18229,567.16736 L 319.18229,576.61521 L 288.79773,576.61521 M 321.98042,567.16736 L 331.69163,567.16736 L 331.69163,591.98855 C 331.69161,595.43412 332.10859,597.93599 332.94256,599.49416 C 333.79845,601.05235 335.4115,602.29231 337.78171,603.21405 L 337.78171,613.12277 C 335.65291,612.74968 333.62288,612.03643 331.69163,610.98301 C 329.76035,609.9296 328.08146,608.61282 326.65497,607.03269 C 324.98705,605.21116 323.79098,603.20308 323.06676,601.00845 C 322.34253,598.81384 321.98042,596.10348 321.98042,592.87737 L 321.98042,567.16736 M 349.3364,567.16736 L 359.04761,567.16736 L 359.04761,592.87737 C 359.04757,596.10348 358.68545,598.81384 357.96127,601.00845 C 357.237,603.20308 356.04094,605.21116 354.37306,607.03269 C 352.92457,608.63477 351.22374,609.96251 349.27056,611.01593 C 347.31732,612.06935 345.27632,612.77163 343.14756,613.12277 L 343.14756,603.21405 C 345.51773,602.3801 347.14175,601.17306 348.01963,599.59292 C 348.89744,597.99086 349.33637,595.45607 349.3364,591.98855 L 349.3364,567.16736 M 359.67308,612.23395 L 373.63088,593.33824 L 379.58928,601.4364 L 371.6228,612.23395 L 359.67308,612.23395 M 394.27131,612.23395 L 361.15445,567.16736 L 373.13709,567.16736 L 406.22104,612.23395 L 394.27131,612.23395 M 386.30483,576.05558 L 392.92162,567.16736 L 404.87135,567.16736 L 392.32907,584.18666 L 386.30483,576.05558"
         transform="scale(1.0277475,0.9730016)"
         id="text4142"
         style="font-size:67.41883087px;font-style:normal;font-variant:normal;font-weight:normal;font-stretch:normal;text-align:center;line-height:125%;writing-mode:lr-tb;text-anchor:middle;fill:#000000;fill-opacity:1;stroke:none;stroke-width:1px;stroke-linecap:butt;stroke-linejoin:miter;stroke-opacity:1;font-family:GlaserSteD;-inkscape-font-specification:GlaserSteD" />
      <path
         d="M 451.15125,457.54005 C 450.90358,459.94583 450.14294,461.80322 448.86931,463.11225 C 447.75485,464.24438 446.44583,464.81044 444.94223,464.81044 C 443.47399,464.81044 442.27995,464.27975 441.3601,463.21838 C 440.1749,461.85629 439.5823,459.45052 439.58231,456.00106 C 439.5823,453.9314 439.81227,451.99439 440.2722,450.19005 C 440.73212,448.31498 441.31587,447.08556 442.02346,446.50179 C 442.55414,446.05957 443.08482,445.60848 443.61552,445.14854 C 444.42923,444.60018 445.22525,444.326 446.0036,444.32597 C 447.10034,444.326 448.22363,444.88321 449.37346,445.99763 C 450.68247,447.28899 451.33698,449.95126 451.33699,453.98445 C 451.33698,455.11659 451.27506,456.30179 451.15125,457.54005 M 447.64873,449.34095 C 447.25955,448.54494 446.63157,448.14693 445.76479,448.14691 C 445.2341,448.14693 444.7211,448.37689 444.22581,448.8368 C 443.87201,449.17292 443.50937,450.07508 443.1379,451.5433 C 442.73103,453.11768 442.52761,454.59475 442.52761,455.97452 C 442.52761,456.55829 442.57183,457.08013 442.66028,457.54005 C 443.01407,459.66279 443.91623,460.77723 445.36678,460.88337 C 447.27724,461.02489 448.23247,458.84023 448.23248,454.3294 C 448.23247,451.79981 448.03789,450.137 447.64873,449.34095 M 457.78244,458.99943 C 458.24236,459.03482 458.59615,459.27362 458.84381,459.71586 C 459.03839,460.06965 459.13568,460.45882 459.13569,460.88337 C 459.13568,461.23716 458.95879,461.57326 458.605,461.89167 C 458.25121,462.19239 457.88857,462.32506 457.5171,462.28968 C 457.05716,462.23662 456.64146,462.05088 456.26999,461.73246 C 455.8985,461.41405 455.71276,461.03373 455.71277,460.59149 C 455.71276,460.11388 455.8985,459.71586 456.26999,459.39745 C 456.64146,459.07904 457.14561,458.94637 457.78244,458.99943 M 475.65089,457.93806 C 475.56243,460.62687 474.18265,462.55503 471.51155,463.72253 C 469.74258,464.48318 467.611,464.86351 465.11678,464.86351 C 464.39151,464.86351 463.86967,464.83697 463.55126,464.78391 L 464.26769,461.46712 C 468.26551,461.59095 470.49439,460.44113 470.95433,458.01766 C 470.98969,457.8054 471.00738,457.59312 471.00739,457.38084 C 471.00738,456.40793 470.5563,455.57652 469.65415,454.88662 C 469.10576,454.46208 468.27435,454.02869 467.15992,453.58644 C 466.31082,453.25035 465.91281,453.02923 465.96588,452.92308 C 466.2666,452.42779 467.0184,451.82634 468.22129,451.11875 C 469.31804,450.44656 469.98139,449.82743 470.21137,449.26135 C 470.35287,448.88989 470.42363,448.55379 470.42364,448.25305 C 470.42363,447.3509 469.73374,446.89982 468.35397,446.8998 C 466.70883,446.89982 465.24945,447.25361 463.97581,447.96117 C 463.8166,447.51895 463.8166,446.64332 463.97581,445.33428 C 465.674,444.02527 467.26605,443.37076 468.75198,443.37074 C 469.8841,443.37076 471.05161,443.68033 472.25451,444.29944 C 473.40431,444.88321 473.97922,445.72347 473.97923,446.8202 C 473.97922,447.72238 473.61658,448.72184 472.89133,449.81857 C 472.34294,450.64999 471.77688,451.3045 471.19313,451.78211 C 471.9007,452.20667 472.61713,452.63122 473.34241,453.05575 C 474.13842,453.53338 474.71333,454.08176 475.06714,454.70088 C 475.50936,455.49692 475.70395,456.57598 475.65089,457.93806"
         transform="scale(0.8618277,1.1603247)"
         id="text4146"
         style="font-size:33.16785049px;font-style:normal;font-variant:normal;font-weight:normal;font-stretch:normal;text-align:start;line-height:125%;writing-mode:lr-tb;text-anchor:start;fill:#000000;fill-opacity:1;stroke:none;stroke-width:1px;stroke-linecap:butt;stroke-linejoin:miter;stroke-opacity:1;font-family:Vemana2000;-inkscape-font-specification:Vemana2000" />
    </g>
  </g>
</svg>
