<?xml version="1.0" encoding="UTF-8" standalone="no"?>
<!-- Created with Inkscape (http://www.inkscape.org/) -->
<svg
   xmlns:dc="http://purl.org/dc/elements/1.1/"
   xmlns:cc="http://creativecommons.org/ns#"
   xmlns:rdf="http://www.w3.org/1999/02/22-rdf-syntax-ns#"
   xmlns:svg="http://www.w3.org/2000/svg"
   xmlns="http://www.w3.org/2000/svg"
   xmlns:xlink="http://www.w3.org/1999/xlink"
   xmlns:sodipodi="http://sodipodi.sourceforge.net/DTD/sodipodi-0.dtd"
   xmlns:inkscape="http://www.inkscape.org/namespaces/inkscape"
   id="svg2403"
   sodipodi:version="0.32"
   inkscape:version="0.46"
   width="1052.5"
   height="743.75"
   xml:space="preserve"
   sodipodi:docname="splash.svg"
   inkscape:output_extension="org.inkscape.output.svg.inkscape"><metadata
     id="metadata2408"><rdf:RDF><cc:Work
         rdf:about=""><dc:format>image/svg+xml</dc:format><dc:type
           rdf:resource="http://purl.org/dc/dcmitype/StillImage" /></cc:Work></rdf:RDF></metadata><defs
     id="defs2406"><linearGradient
       id="linearGradient4636"><stop
         style="stop-color:#b0b0b0;stop-opacity:1;"
         offset="0"
         id="stop4638" /><stop
         style="stop-color:#000000;stop-opacity:0;"
         offset="1"
         id="stop4640" /></linearGradient><inkscape:perspective
       sodipodi:type="inkscape:persp3d"
       inkscape:vp_x="0 : 526.18109 : 1"
       inkscape:vp_y="0 : 1000 : 0"
       inkscape:vp_z="744.09448 : 526.18109 : 1"
       inkscape:persp3d-origin="372.04724 : 350.78739 : 1"
       id="perspective2410" /><linearGradient
       inkscape:collect="always"
       xlink:href="#linearGradient4636"
       id="linearGradient4642"
       x1="43.012279"
       y1="-492.16957"
       x2="338.33764"
       y2="-492.16957"
       gradientUnits="userSpaceOnUse"
       gradientTransform="matrix(1.0921147,0,0,0.9997878,-3.9831245,-0.1044381)" /></defs><sodipodi:namedview
     inkscape:window-height="949"
     inkscape:window-width="1280"
     inkscape:pageshadow="2"
     inkscape:pageopacity="0.0"
     guidetolerance="10.0"
     gridtolerance="10.0"
     objecttolerance="10.0"
     borderopacity="1.0"
     bordercolor="#666666"
     pagecolor="#ffffff"
     id="base"
     showgrid="false"
     inkscape:zoom="0.73633162"
     inkscape:cx="338.27493"
     inkscape:cy="612.66977"
     inkscape:window-x="-2"
     inkscape:window-y="-7"
     inkscape:current-layer="g2412" /><g
     id="g2412"
     inkscape:groupmode="layer"
     inkscape:label="Kuhn, Mirta Mabel"
     transform="matrix(1.25,0,0,-1.25,0,743.75)"><g
       id="g2416"
       transform="matrix(5.9999e-2,0,0,-5.9999e-2,165.35766,541.80657)"><g
         id="g2418" /></g><g
       id="g2422"
       transform="matrix(5.9999e-2,0,0,-5.9999e-2,288.27737,557.17153)" /><g
       id="g2424"
       transform="matrix(5.9999e-2,0,0,-5.9999e-2,288.27737,557.17153)" /><g
       id="g2498"
       transform="matrix(5.9999e-2,0,0,-5.9999e-2,288.27737,557.17153)" /><g
       id="g2504"
       transform="matrix(5.9999e-2,0,0,-5.9999e-2,288.27737,557.17153)" /><g
       id="g2542"
       transform="matrix(5.9999e-2,0,0,-5.9999e-2,288.27737,557.17153)" /><g
       id="g2560"
       transform="matrix(5.9999e-2,0,0,-5.9999e-2,288.27737,557.17153)" /><g
       id="g2644"
       transform="matrix(5.9999e-2,0,0,-5.9999e-2,288.27737,557.17153)" /><g
       id="g4644"
       inkscape:export-filename="/home/Esteban/Programas/gestotux/plugins/HiComp/splash.png"
       inkscape:export-xdpi="84"
       inkscape:export-ydpi="84"><rect
         transform="scale(1,-1)"
         y="-586.67212"
         x="43.478737"
         height="189.00514"
         width="321.55411"
         id="rect3864"
         style="opacity:1;fill:url(#linearGradient4642);fill-opacity:1;fill-rule:evenodd;stroke:#000000;stroke-width:0.93291533;stroke-miterlimit:4;stroke-dasharray:none;stroke-opacity:1" /><g
         transform="matrix(2.4354226,0,0,2.7427037,-794.82862,-951.8987)"
         id="g3836"><g
           id="g2430"
           transform="matrix(1.7208853,0,0,-2.6776114,353.96248,558.65724)"><path
             d="M 68.049,19.2307 L 68.049,21.5854 L 34.7391,21.5748 L 34.7391,19.5028 L 0.971999,19.5134"
             style="fill:none;stroke:#1f1a17;stroke-width:0.35280001;stroke-linecap:butt;stroke-linejoin:miter;stroke-miterlimit:10;stroke-dasharray:none;stroke-opacity:1"
             id="path2432" /></g><g
           id="g2434"
           transform="matrix(5.9999e-2,0,0,-5.9999e-2,288.27737,557.17153)"><g
             id="g2436"
             transform="scale(44.5555,43.4142)"><path
               d="M 40.349,19.2424 L 49.77106,19.2424 L 49.77106,21.87719 L 40.349,21.87719 L 40.349,19.2424 z"
               style="fill:#1f1a17;fill-opacity:1;fill-rule:nonzero;stroke:none"
               id="path2438" /></g></g><g
           id="g2440"
           transform="matrix(2.6732854,0,0,-2.6048086,288.27737,557.17153)"><path
             d="M 40.349,19.2424 L 49.77106,19.2424 L 49.77106,21.87719 L 40.349,21.87719 L 40.349,19.2424 z"
             style="fill:none;stroke:#1f1a17;stroke-width:0.0762;stroke-linecap:butt;stroke-linejoin:miter;stroke-miterlimit:10;stroke-dasharray:none;stroke-opacity:1"
             id="path2442" /></g><path
           id="path2450"
           style="fill:#999999;fill-opacity:1;fill-rule:nonzero;stroke:none"
           d="M 371.51818,507.62622 L 371.51818,521.81718 L 376.01151,521.81718 L 376.01151,517.09886 L 378.74686,517.09886 L 378.74686,521.81718 L 383.23119,521.81718 L 383.23119,507.62622 L 378.74686,507.62622 L 378.74686,512.62905 L 376.01151,512.62905 L 376.01151,507.62622 L 371.51818,507.62622 z M 389.89288,520.76834 C 389.89288,520.05033 389.68588,519.48136 389.27009,519.05771 C 388.85669,518.63435 388.2951,518.42238 387.59071,518.42238 C 386.88033,518.42238 386.31334,518.63435 385.89394,519.06107 C 385.47215,519.48784 385.26275,520.05711 385.26275,520.76834 C 385.26275,521.47956 385.46915,522.0387 385.88554,522.44915 C 386.29834,522.8596 386.86893,523.0645 387.59071,523.0645 C 388.3065,523.0645 388.86809,522.8596 389.27849,522.44915 C 389.68888,522.0387 389.89288,521.47956 389.89288,520.76834 z M 385.44275,507.62622 L 385.44275,517.64815 L 389.72368,517.64815 L 389.72368,507.62622 L 385.44275,507.62622 z M 392.00544,510.58447 L 392.00544,514.6374 L 397.83734,514.6374 L 397.83734,510.58447 L 392.00544,510.58447 z M 409.78374,516.18579 C 409.37335,516.63249 408.95756,516.96674 408.52977,517.1849 C 408.10437,517.40671 407.65378,517.51603 407.18219,517.51603 C 406.449,517.51603 405.85801,517.25798 405.41222,516.74492 C 404.96703,516.23217 404.74323,515.54704 404.74323,514.69362 C 404.74323,513.86011 404.95563,513.19466 405.38402,512.69847 C 405.80821,512.19862 406.3818,511.9507 407.09759,511.9507 C 407.52838,511.9507 407.96758,512.05672 408.41337,512.26498 C 408.86156,512.47695 409.34695,512.80755 409.87674,513.2678 L 409.73095,507.92729 C 409.24255,507.70241 408.75356,507.5304 408.26457,507.41796 C 407.77618,507.30552 407.28719,507.2493 406.79759,507.2493 C 406.1898,507.2493 405.60481,507.32514 405.04322,507.4806 C 404.47863,507.63636 403.97224,507.85817 403.51565,508.14269 C 402.41227,508.86376 401.58008,509.78018 401.01549,510.88554 C 400.4479,511.99036 400.16531,513.25766 400.16531,514.69362 C 400.16531,515.7526 400.3255,516.73508 400.6489,517.64143 C 400.96869,518.54495 401.43728,519.34222 402.04867,520.03377 C 402.66846,520.7321 403.38725,521.26141 404.20204,521.6187 C 405.01982,521.97942 405.90181,522.15791 406.85039,522.15791 C 407.35679,522.15791 407.85478,522.09827 408.34617,521.97942 C 408.83816,521.8602 409.31875,521.6814 409.78374,521.43991 L 409.78374,516.18579 z M 416.27084,511.24254 C 416.57923,511.24254 416.82943,511.36823 417.02142,511.61981 C 417.21642,511.87115 417.31242,512.20234 417.31242,512.60907 C 417.31242,513.02295 417.21642,513.35348 417.02682,513.60176 C 416.83483,513.84997 416.58463,513.97561 416.27084,513.97561 C 415.95344,513.97561 415.69965,513.84997 415.50825,513.60176 C 415.31865,513.35348 415.22265,513.02295 415.22265,512.60907 C 415.22265,512.19556 415.31865,511.86503 415.50825,511.61645 C 415.69965,511.36823 415.95344,511.24254 416.27084,511.24254 z M 421.42175,512.60907 C 421.42175,511.85489 421.27895,511.13322 420.99696,510.44869 C 420.71136,509.76356 420.30397,509.15835 419.77718,508.63546 C 419.31459,508.18229 418.78839,507.83819 418.1938,507.60318 C 417.60041,507.36846 416.96023,507.2493 416.27084,507.2493 C 415.58385,507.2493 414.94366,507.3651 414.35267,507.59646 C 413.76228,507.83147 413.23249,508.17557 412.7585,508.63546 C 412.2371,509.13837 411.83271,509.73716 411.54412,510.43213 C 411.25612,511.12704 411.11392,511.85489 411.11392,512.60907 C 411.11392,513.3704 411.25612,514.09819 411.54412,514.78608 C 411.83271,515.47456 412.2371,516.07335 412.7585,516.58305 C 413.23249,517.04294 413.76228,517.38673 414.35267,517.62175 C 414.94366,517.85341 415.58385,517.9695 416.27084,517.9695 C 416.96023,517.9695 417.60041,517.84999 418.1938,517.61527 C 418.78839,517.38025 419.31999,517.03586 419.79218,516.58305 C 420.30997,516.07977 420.71136,515.48134 420.99696,514.78974 C 421.27895,514.09819 421.42175,513.3704 421.42175,512.60907 z M 422.86773,507.62622 L 422.86773,517.64815 L 426.95366,517.64815 L 426.95366,516.24201 C 427.28845,516.83768 427.65805,517.27459 428.05944,517.55233 C 428.46383,517.83007 428.92643,517.9695 429.45082,517.9695 C 430.06761,517.9695 430.583,517.79719 430.99579,517.45645 C 431.40618,517.11236 431.74098,516.57627 431.99657,515.84506 C 432.33197,516.54309 432.74176,517.07276 433.22775,517.43005 C 433.71435,517.79041 434.25854,517.9695 434.86093,517.9695 C 435.72491,517.9695 436.4149,517.64479 436.92969,516.99626 C 437.44508,516.34461 437.70128,515.47121 437.70128,514.37256 L 437.70128,507.62622 L 433.56555,507.62622 L 433.56555,512.66529 C 433.56555,513.17804 433.52475,513.52244 433.44315,513.70435 C 433.35915,513.88621 433.21935,513.97561 433.01896,513.97561 C 432.79156,513.97561 432.62236,513.86965 432.51197,513.65486 C 432.40157,513.44288 432.34637,513.11198 432.34637,512.66529 L 432.34637,507.62622 L 428.27244,507.62622 L 428.27244,512.66529 C 428.27244,513.16514 428.23164,513.50588 428.15004,513.69451 C 428.06544,513.88285 427.92264,513.97561 427.71925,513.97561 C 427.48645,513.97561 427.31425,513.86965 427.20445,513.65486 C 427.09346,513.44288 427.03826,513.11198 427.03826,512.66529 L 427.03826,507.62622 L 422.86773,507.62622 z M 444.69716,511.1667 C 445.01996,511.1667 445.28515,511.29875 445.48855,511.56701 C 445.69495,511.83491 445.79754,512.18914 445.79754,512.62905 C 445.79754,513.06903 445.69495,513.42326 445.48855,513.69451 C 445.28515,513.96577 445.01996,514.10161 444.69716,514.10161 C 444.36537,514.10161 444.10017,513.96577 443.89678,513.69451 C 443.69578,513.42326 443.59378,513.06903 443.59378,512.62905 C 443.59378,512.18914 443.69578,511.83491 443.89678,511.56701 C 444.10017,511.29875 444.36537,511.1667 444.69716,511.1667 z M 439.51085,503.30179 L 439.51085,517.64815 L 443.59378,517.64815 L 443.59378,516.32127 C 443.96998,516.87734 444.38277,517.29115 444.83396,517.56247 C 445.28815,517.83373 445.78494,517.9695 446.33274,517.9695 C 447.39412,517.9695 448.2533,517.47613 448.90189,516.49023 C 449.55408,515.50438 449.88048,514.19407 449.88048,512.55285 C 449.88048,510.99432 449.54508,509.72396 448.87849,508.74148 C 448.2095,507.75863 447.35992,507.26892 446.33274,507.26892 C 445.77355,507.26892 445.26715,507.41118 444.81356,507.69905 C 444.35937,507.98693 443.95738,508.42042 443.61178,508.99617 C 443.64658,508.75468 443.66998,508.4929 443.68738,508.20503 C 443.70478,507.91751 443.71318,507.59982 443.71318,507.2493 L 443.71318,503.30179 L 439.51085,503.30179 z" /><g
           id="g2452"
           transform="matrix(5.9999e-2,0,0,-5.9999e-2,288.27737,557.17153)"><path
             d="M 1398.01,813.915 L 1398.01,577.395 L 1472.9,577.395 L 1472.9,656.035 L 1518.49,656.035 L 1518.49,577.395 L 1593.24,577.395 L 1593.24,813.915 L 1518.49,813.915 L 1518.49,730.533 L 1472.9,730.533 L 1472.9,813.915 L 1398.01,813.915 z"
             style="fill:#1f1a17;fill-opacity:1;fill-rule:evenodd;stroke:none"
             id="path2454" /></g><g
           id="g2456"
           transform="matrix(5.9999e-2,0,0,-5.9999e-2,288.27737,557.17153)"><path
             d="M 1630.09,813.915 L 1630.09,646.88 L 1701.45,646.88 L 1701.45,813.915 L 1630.09,813.915 z"
             style="fill:#1f1a17;fill-opacity:1;fill-rule:evenodd;stroke:none"
             id="path2458" /></g><g
           id="g2460"
           transform="matrix(5.9999e-2,0,0,-5.9999e-2,288.27737,557.17153)"><path
             d="M 1704.25,594.876 C 1704.25,606.843 1700.82,616.331 1693.88,623.387 C 1686.99,630.443 1677.63,633.976 1665.89,633.976 C 1654.05,633.976 1644.6,630.443 1637.61,623.331 C 1630.58,616.218 1627.09,606.735 1627.09,594.876 C 1627.09,583.022 1630.53,573.703 1637.47,566.862 C 1644.35,560.026 1653.86,556.606 1665.89,556.606 C 1677.82,556.606 1687.18,560.026 1694.02,566.862 C 1700.86,573.703 1704.25,583.022 1704.25,594.876 z"
             style="fill:#1f1a17;fill-opacity:1;fill-rule:nonzero;stroke:none"
             id="path2462" /></g><g
           id="g2464"
           transform="matrix(5.9999e-2,0,0,-5.9999e-2,288.27737,557.17153)"><path
             d="M 1715.28,779.923 L 1715.28,712.369 L 1812.48,712.369 L 1812.48,779.923 L 1715.28,779.923 z"
             style="fill:#1f1a17;fill-opacity:1;fill-rule:evenodd;stroke:none"
             id="path2466" /></g><g
           id="g2468"
           transform="matrix(5.9999e-2,0,0,-5.9999e-2,288.27737,557.17153)"><path
             d="M 2035.78,671.253 C 2028.94,663.808 2022.01,658.237 2014.88,654.602 C 2007.79,650.905 2000.28,649.082 1992.42,649.082 C 1980.2,649.082 1970.35,653.388 1962.93,661.934 C 1955.51,670.48 1951.77,681.899 1951.77,696.123 C 1951.77,710.02 1955.31,721.106 1962.44,729.376 C 1969.52,737.707 1979.08,741.839 1991.01,741.839 C 1998.19,741.839 2005.52,740.078 2012.94,736.601 C 2020.4,733.068 2028.51,727.558 2037.34,719.888 L 2034.91,808.897 C 2026.76,812.645 2018.62,815.512 2010.47,817.386 C 2002.31,819.261 1994.17,820.198 1986.02,820.198 C 1975.87,820.198 1966.13,818.933 1956.77,816.342 C 1947.36,813.746 1938.92,810.054 1931.3,805.307 C 1912.92,793.289 1899.05,778.015 1889.64,759.597 C 1880.18,741.178 1875.48,720.057 1875.48,696.123 C 1875.48,678.473 1878.14,662.098 1883.53,646.992 C 1888.86,631.933 1896.68,618.646 1906.86,607.119 C 1917.19,595.481 1929.17,586.658 1942.75,580.708 C 1956.38,574.697 1971.08,571.716 1986.89,571.716 C 1995.33,571.716 2003.63,572.71 2011.82,574.697 C 2020.02,576.678 2028.02,579.658 2035.78,583.683 L 2035.78,671.253 z"
             style="fill:#1f1a17;fill-opacity:1;fill-rule:nonzero;stroke:none"
             id="path2470" /><path
             d="M 2143.9,753.642 C 2149.03,753.642 2153.2,751.547 2156.41,747.354 C 2159.66,743.165 2161.26,737.645 2161.26,730.866 C 2161.26,723.974 2159.66,718.459 2156.5,714.322 C 2153.31,710.184 2149.13,708.09 2143.9,708.09 C 2138.61,708.09 2134.38,710.184 2131.19,714.322 C 2128.03,718.459 2126.43,723.974 2126.43,730.866 C 2126.43,737.758 2128.03,743.273 2131.19,747.41 C 2134.38,751.547 2138.61,753.642 2143.9,753.642 z M 2229.75,730.866 C 2229.75,743.442 2227.37,755.465 2222.67,766.878 C 2217.91,778.292 2211.12,788.379 2202.34,797.094 C 2194.62,804.647 2185.85,810.382 2175.95,814.299 C 2166.06,818.216 2155.39,820.198 2143.9,820.198 C 2132.45,820.198 2121.78,818.267 2111.93,814.411 C 2102.08,810.494 2093.26,804.759 2085.35,797.094 C 2076.67,788.712 2069.93,778.732 2065.12,767.149 C 2060.32,755.572 2057.94,743.442 2057.94,730.866 C 2057.94,718.177 2060.32,706.047 2065.12,694.582 C 2069.93,683.112 2076.67,673.127 2085.35,664.633 C 2093.26,656.972 2102.08,651.237 2111.93,647.32 C 2121.78,643.459 2132.45,641.529 2143.9,641.529 C 2155.39,641.529 2166.06,643.516 2175.95,647.428 C 2185.85,651.345 2194.72,657.085 2202.59,664.633 C 2211.22,673.02 2217.91,683 2222.67,694.521 C 2227.37,706.047 2229.75,718.177 2229.75,730.866 z"
             style="fill:#1f1a17;fill-opacity:1;fill-rule:nonzero;stroke:none"
             id="path2472" /><path
             d="M 2253.85,813.915 L 2253.85,646.88 L 2321.95,646.88 L 2321.95,670.316 C 2327.53,660.388 2333.69,653.106 2340.38,648.477 C 2347.13,643.849 2354.84,641.529 2363.57,641.529 C 2373.85,641.529 2382.44,644.396 2389.32,650.075 C 2396.17,655.81 2401.74,664.745 2406.01,676.932 C 2411.59,665.298 2418.43,656.47 2426.53,650.515 C 2434.63,644.509 2443.7,641.529 2453.74,641.529 C 2468.15,641.529 2479.63,646.936 2488.22,657.745 C 2496.81,668.606 2501.08,683.163 2501.08,701.474 L 2501.08,813.915 L 2432.15,813.915 L 2432.15,729.929 C 2432.15,721.383 2431.47,715.643 2430.11,712.616 C 2428.71,709.58 2426.38,708.09 2423.03,708.09 C 2419.26,708.09 2416.43,709.857 2414.6,713.436 C 2412.75,716.969 2411.84,722.484 2411.84,729.929 L 2411.84,813.915 L 2343.93,813.915 L 2343.93,729.929 C 2343.93,721.598 2343.25,715.919 2341.89,712.775 C 2340.48,709.636 2338.1,708.09 2334.71,708.09 C 2330.83,708.09 2327.97,709.857 2326.13,713.436 C 2324.28,716.969 2323.36,722.484 2323.36,729.929 L 2323.36,813.915 L 2253.85,813.915 z"
             style="fill:#1f1a17;fill-opacity:1;fill-rule:nonzero;stroke:none"
             id="path2474" /><path
             d="M 2617.67,754.912 C 2623.06,754.912 2627.47,752.705 2630.87,748.24 C 2634.32,743.769 2636.02,737.865 2636.02,730.533 C 2636.02,723.2 2634.32,717.302 2630.87,712.775 C 2627.47,708.259 2623.06,705.996 2617.67,705.996 C 2612.15,705.996 2607.74,708.259 2604.34,712.775 C 2600.99,717.302 2599.29,723.2 2599.29,730.533 C 2599.29,737.865 2600.99,743.769 2604.34,748.24 C 2607.74,752.705 2612.15,754.912 2617.67,754.912 z M 2531.24,885.991 L 2531.24,646.88 L 2599.29,646.88 L 2599.29,668.995 C 2605.55,659.727 2612.44,652.835 2619.96,648.308 C 2627.52,643.792 2635.82,641.529 2644.93,641.529 C 2662.64,641.529 2676.94,649.747 2687.76,666.179 C 2698.63,682.61 2704.06,704.454 2704.06,731.803 C 2704.06,757.779 2698.48,778.952 2687.37,795.333 C 2676.22,811.708 2662.06,819.87 2644.93,819.87 C 2635.62,819.87 2627.18,817.499 2619.62,812.701 C 2612.05,807.903 2605.36,800.678 2599.58,791.083 C 2600.17,795.107 2600.55,799.47 2600.85,804.268 C 2601.14,809.061 2601.28,814.36 2601.28,820.198 L 2601.28,885.991 L 2531.24,885.991 z"
             style="fill:#1f1a17;fill-opacity:1;fill-rule:nonzero;stroke:none"
             id="path2476" /><path
             d="M 1138.42,846.886 C 1138.42,862.566 1128.43,875.277 1116.1,875.277 C 1103.78,875.277 1093.79,862.566 1093.79,846.886 C 1093.79,831.206 1103.78,818.495 1116.1,818.495 C 1128.43,818.495 1138.42,831.206 1138.42,846.886 z"
             style="fill:#1f1a17;fill-opacity:1;fill-rule:evenodd;stroke:none"
             id="path2478" /></g><g
           id="g2480"
           transform="matrix(5.9999e-2,0,0,-5.9999e-2,288.27737,557.17153)"><path
             d="M 3074.37,830.143 C 3074.37,842.749 3062.1,852.969 3046.98,852.969 C 3031.85,852.969 3019.59,842.749 3019.59,830.143 C 3019.59,817.536 3031.85,807.317 3046.98,807.317 C 3062.1,807.317 3074.37,817.536 3074.37,830.143 z"
             style="fill:#1f1a17;fill-opacity:1;fill-rule:evenodd;stroke:none"
             id="path2482" /></g><g
           id="g2666"
           transform="matrix(5.9999e-2,0,0,-5.9999e-2,288.27737,557.17153)"><path
             d="M 1806.38,925.233 L 1806.38,914.977 C 1812.14,919.579 1817.82,921.88 1823.42,921.88 C 1829.7,921.88 1832.85,917.952 1832.85,910.096 C 1832.85,906.02 1831.98,903.029 1830.25,901.122 C 1828.91,899.61 1826.75,898.032 1823.77,896.389 L 1817.91,893.135 C 1810.38,888.96 1806.62,882.074 1806.62,872.476 C 1806.62,859.492 1811.89,853 1822.43,853 C 1826.94,853 1831.62,854.036 1836.46,856.107 L 1836.46,865.622 C 1831.41,862.368 1826.6,860.741 1822.05,860.741 C 1815.71,860.741 1812.54,864.39 1812.54,871.687 C 1812.54,874.547 1813.13,876.848 1814.32,878.59 C 1815.55,880.398 1817.7,882.156 1820.8,883.865 L 1826.81,887.169 C 1831.34,889.667 1834.53,892.527 1836.38,895.748 C 1838.22,898.936 1839.15,903.21 1839.15,908.567 C 1839.15,915.043 1837.73,920.171 1834.89,923.951 C 1832.07,927.731 1828.17,929.621 1823.19,929.621 C 1818.29,929.621 1812.69,928.158 1806.38,925.233 z M 1848.37,927.796 L 1848.37,854.825 L 1879.67,854.825 L 1879.67,862.566 L 1854.49,862.566 L 1854.49,885.986 L 1876.78,885.986 L 1876.78,893.628 L 1854.49,893.628 L 1854.49,920.056 L 1880.96,920.056 L 1880.96,927.796 L 1848.37,927.796 z M 1887.52,927.796 L 1887.52,854.825 L 1905.55,854.825 C 1914.42,854.825 1918.85,860.856 1918.85,872.92 C 1918.85,878.836 1917.77,883.701 1915.61,887.514 C 1914.35,889.782 1912.52,891.82 1910.13,893.628 L 1924.54,927.796 L 1917.01,927.796 L 1904.73,896.931 L 1893.65,896.931 L 1893.65,927.796 L 1887.52,927.796 z M 1893.65,889.19 L 1900.5,889.19 C 1904.66,889.19 1907.71,887.974 1909.63,885.542 C 1911.58,883.077 1912.55,879.264 1912.55,874.103 C 1912.55,869.928 1911.76,866.97 1910.19,865.228 C 1908.63,863.453 1906.04,862.566 1902.4,862.566 L 1893.65,862.566 L 1893.65,889.19 z M 1964.66,893.874 L 1964.66,925.824 C 1959.33,928.355 1954.13,929.621 1949.08,929.621 C 1933.95,929.621 1926.38,916.933 1926.38,891.557 C 1926.38,879.132 1928.33,869.6 1932.24,862.96 C 1936.17,856.32 1941.84,853 1949.25,853 C 1954.04,853 1959.15,854.101 1964.6,856.304 L 1964.6,865.869 C 1958.36,862.451 1953.15,860.741 1948.99,860.741 C 1938.29,860.741 1932.94,870.865 1932.94,891.113 C 1932.94,901.106 1934.42,908.732 1937.38,913.991 C 1940.32,919.25 1944.5,921.88 1949.92,921.88 C 1952.16,921.88 1955.04,921.272 1958.56,920.056 L 1958.56,901.467 L 1951.35,901.467 L 1951.35,893.874 L 1964.66,893.874 z M 1975.36,927.796 L 1975.36,854.825 L 1981.49,854.825 L 1981.49,927.796 L 1975.36,927.796 z M 2010.05,853 C 2016.26,853 2021.24,856.468 2024.99,863.404 C 2028.72,870.372 2030.59,879.642 2030.59,891.212 C 2030.59,903.012 2028.72,912.364 2024.99,919.267 C 2021.24,926.169 2016.16,929.621 2009.76,929.621 C 2004.28,929.621 1999.75,926.777 1996.2,921.091 C 1991.74,913.958 1989.51,904.031 1989.51,891.311 C 1989.51,879.642 1991.38,870.339 1995.12,863.404 C 1998.85,856.468 2003.83,853 2010.05,853 z M 2010.05,860.741 C 2005.64,860.741 2002.21,863.42 1999.75,868.778 C 1997.3,874.136 1996.08,881.63 1996.08,891.261 C 1996.08,900.826 1997.3,908.321 1999.75,913.744 C 2002.19,919.168 2005.57,921.88 2009.91,921.88 C 2013.93,921.88 2017.14,919.71 2019.53,915.372 C 2022.53,910.014 2024.03,901.96 2024.03,891.212 C 2024.03,881.614 2022.79,874.136 2020.32,868.778 C 2017.85,863.42 2014.43,860.741 2010.05,860.741 z M 2053.32,925.233 L 2053.32,914.977 C 2059.08,919.579 2064.76,921.88 2070.36,921.88 C 2076.64,921.88 2079.78,917.952 2079.78,910.096 C 2079.78,906.02 2078.92,903.029 2077.18,901.122 C 2075.84,899.61 2073.68,898.032 2070.71,896.389 L 2064.84,893.135 C 2057.32,888.96 2053.55,882.074 2053.55,872.476 C 2053.55,859.492 2058.82,853 2069.37,853 C 2073.88,853 2078.56,854.036 2083.4,856.107 L 2083.4,865.622 C 2078.34,862.368 2073.54,860.741 2068.99,860.741 C 2062.65,860.741 2059.47,864.39 2059.47,871.687 C 2059.47,874.547 2060.07,876.848 2061.25,878.59 C 2062.48,880.398 2064.64,882.156 2067.73,883.865 L 2073.74,887.169 C 2078.27,889.667 2081.46,892.527 2083.31,895.748 C 2085.16,898.936 2086.08,903.21 2086.08,908.567 C 2086.08,915.043 2084.66,920.171 2081.82,923.951 C 2079,927.731 2075.1,929.621 2070.12,929.621 C 2065.22,929.621 2059.62,928.158 2053.32,925.233 z M 2089.23,927.796 L 2105.63,854.825 L 2111.7,854.825 L 2127.83,927.796 L 2121.24,927.796 L 2116.74,907.581 L 2099.42,907.581 L 2094.92,927.796 L 2089.23,927.796 z M 2101.17,899.89 L 2115.05,899.89 L 2108.14,868.63 L 2101.17,899.89 z M 2165.82,924.049 C 2161.36,927.764 2156.6,929.621 2151.52,929.621 C 2144.42,929.621 2139.02,926.367 2135.33,919.858 C 2131.61,913.35 2129.76,903.867 2129.76,891.409 C 2129.76,878.984 2131.64,869.468 2135.42,862.861 C 2139.19,856.287 2144.65,853 2151.78,853 C 2155.77,853 2160.43,854.069 2165.76,856.205 L 2165.76,865.918 C 2159.71,862.467 2154.94,860.741 2151.46,860.741 C 2146.58,860.741 2142.84,863.371 2140.23,868.63 C 2137.62,873.856 2136.32,881.417 2136.32,891.311 C 2136.32,900.974 2137.71,908.419 2140.49,913.646 C 2143.27,918.905 2147.18,921.535 2152.22,921.535 C 2156.44,921.535 2160.97,919.415 2165.82,915.174 L 2165.82,924.049 z M 2173.14,927.796 L 2173.14,854.825 L 2178.89,854.825 L 2178.89,890.719 L 2196.83,854.825 L 2202.99,854.825 L 2185.6,889.634 L 2205.99,927.796 L 2198.23,927.796 L 2178.89,890.817 L 2178.89,927.796 L 2173.14,927.796 z"
             style="fill:#ffffff;fill-opacity:1;fill-rule:nonzero;stroke:none"
             id="path2668" /></g></g></g><g
       id="g2674"
       transform="matrix(5.9999e-2,0,0,-5.9999e-2,288.27737,557.17153)" /><g
       id="g2772"
       transform="matrix(5.9999e-2,0,0,-5.9999e-2,288.27737,557.17153)" /><g
       id="g2774"
       transform="matrix(5.9999e-2,0,0,-5.9999e-2,315.27692,557.17153)" /><g
       id="g2776"
       transform="matrix(5.9999e-2,0,0,-5.9999e-2,288.27737,557.17153)" /><g
       id="g2850"
       transform="matrix(5.9999e-2,0,0,-5.9999e-2,288.27737,557.17153)" /><g
       id="g2856"
       transform="matrix(5.9999e-2,0,0,-5.9999e-2,288.27737,557.17153)" /><g
       id="g2894"
       transform="matrix(5.9999e-2,0,0,-5.9999e-2,288.27737,557.17153)" /><g
       id="g2912"
       transform="matrix(5.9999e-2,0,0,-5.9999e-2,288.27737,557.17153)" /><g
       id="g2996"
       transform="matrix(5.9999e-2,0,0,-5.9999e-2,288.27737,557.17153)" /><g
       id="g3026"
       transform="matrix(5.9999e-2,0,0,-5.9999e-2,288.27737,557.17153)" /><g
       id="g3124"
       transform="matrix(5.9999e-2,0,0,-5.9999e-2,315.27692,557.17153)" /></g></svg>